<svg xmlns="http://www.w3.org/2000/svg" width="579.293" height="43.167" viewBox="0 0 579.293 43.167">
  <path id="Контур_33" data-name="Контур 33" d="M-290.116-30.665h18.943V0h16.319V-30.665h19.006v-11.9h-54.268Zm77.54-5.114c-14.721,0-23.555,5.079-23.555,17.9S-227.3.018-212.576.018s23.56-5.083,23.56-17.9-8.834-17.9-23.56-17.9Zm.289,26.169s-10.764.145-10.706-8.27,10.706-8.275,10.706-8.275,10.1-.539,10.711,8.275C-201.581-17.88-201.114-10-212.287-9.61Zm55.856-26.169c-6.032,0-10.441,1.56-13.407,4.135a20.082,20.082,0,0,0-1.55,1.579l0-13.084h-13.864l.01,42.584h13.854V-5.7a20.837,20.837,0,0,0,1.55,1.579c2.966,2.575,7.376,4.135,13.407,4.135,11.789,0,21.509-7.8,21.509-17.9S-144.646-35.779-156.431-35.779ZM-159.136-9.61c-6.21,0-10.707-3.187-10.707-8.27s4.5-8.275,10.707-8.275,10.711,3.187,10.711,8.275S-152.926-9.61-159.136-9.61ZM-96.31-35.726V-30.9a24.414,24.414,0,0,0-14.9-4.881c-12.059,0-21.831,8.011-21.831,17.9s9.772,17.9,21.831,17.9a24.414,24.414,0,0,0,14.9-4.881v4.3h13.855V-35.726ZM-107.6-10.058s-10.764.145-10.706-8.27S-107.6-26.6-107.6-26.6s10.1-.539,10.711,8.275C-96.893-18.328-96.426-10.447-107.6-10.058Zm52.127.448c-6.21,0-10.706-3.187-10.706-8.27s4.5-8.275,10.706-8.275c5.059,0,8.935,2.137,10.215,5.675h13.571c-1.155-10.913-9.758-15.3-23.444-15.3-14.721,0-23.555,5.079-23.555,17.9S-69.857.018-55.135.018c13.682,0,22.284-4.39,23.444-15.3H-45.262c-1.28,3.529-5.161,5.671-10.215,5.671Zm49.288,0C-12.4-9.61-16.9-12.8-16.9-17.88s4.5-8.275,10.706-8.275c5.059,0,8.935,2.137,10.215,5.675H17.6c-1.155-10.913-9.758-15.3-23.444-15.3-14.721,0-23.555,5.079-23.555,17.9S-20.569.018-5.847.018c13.682,0,22.284-4.39,23.444-15.3H4.026C2.746-11.752-1.135-9.61-6.189-9.61Zm49.63-26.169c-14.721,0-23.555,5.079-23.555,17.9S28.719.018,43.441.018,67-5.065,67-17.88s-8.834-17.9-23.56-17.9ZM43.73-9.61s-10.764.145-10.706-8.27S43.73-26.156,43.73-26.156s10.1-.539,10.711,8.275C54.436-17.88,54.9-10,43.73-9.61ZM146.5-28.022H119.382V-42.7h-16.17V0h16.17V-15.867H146.5V0h16.17V-42.7H146.5ZM209.769-22.9a11.219,11.219,0,0,1-.558,3.591,10.087,10.087,0,0,1-1.906,3.235,8.9,8.9,0,0,1-3.953,2.46,20.721,20.721,0,0,1-6.763.972,21.514,21.514,0,0,1-6.889-.972,8.672,8.672,0,0,1-3.971-2.45,10.381,10.381,0,0,1-1.887-3.24,11.246,11.246,0,0,1-.558-3.591V-42.565h-16.2v20.4a24.766,24.766,0,0,0,.279,3.687,20.582,20.582,0,0,0,1.122,4.126,20.956,20.956,0,0,0,2.156,4.231A19.329,19.329,0,0,0,174.218-6.2a22.491,22.491,0,0,0,5.17,3.264,31.1,31.1,0,0,0,7.091,2.137A49.357,49.357,0,0,0,195.64,0h2.123a41.29,41.29,0,0,0,11.756-1.54,24.631,24.631,0,0,0,8.212-3.933,21.23,21.23,0,0,0,4.934-5.5,20.651,20.651,0,0,0,2.59-5.854,22.7,22.7,0,0,0,.65-5.334V-42.565H209.759V-22.9Zm75.2.857a20.64,20.64,0,0,0-3.11-1.757c.5-.293,1.035-.64,1.593-1.039a7.56,7.56,0,0,0,2.369-2.821,8.556,8.556,0,0,0,.866-3.866v-.761a8.957,8.957,0,0,0-4.193-7.616C279.8-41.786,275.5-42.7,269.339-42.7h-39V0H269.7c12.93,0,19.482-4.3,19.482-12.79v-.761a10.8,10.8,0,0,0-1.141-4.992A9.386,9.386,0,0,0,284.965-22.048Zm-38.4-9.753h20.4c3.6,0,3.6,1.4,3.6,2.109,0,.611,0,2.05-3.6,2.05h-20.4Zm25.837,17.874a2.6,2.6,0,0,1-.838,1.921c-.38.38-1.28.838-3.418.838H246.569v-5.517H268.15c4.255,0,4.255,1.781,4.255,2.542Z" transform="translate(290.116 43.149)" fill="#ededed"/>
</svg>
