<svg xmlns="http://www.w3.org/2000/svg" xmlns:xlink="http://www.w3.org/1999/xlink" width="84.244" height="81" viewBox="0 0 84.244 81"><defs><radialGradient id="a" cx="0.5" cy="0.5" r="0.5" gradientUnits="objectBoundingBox"><stop offset="0" stop-color="#fff"/><stop offset="0.063" stop-color="#fff"/><stop offset="1" stop-color="#fff" stop-opacity="0"/></radialGradient><radialGradient id="b" cx="0.5" cy="0.5" r="0.5" gradientUnits="objectBoundingBox"><stop offset="0" stop-color="#36ffcf"/><stop offset="0.063" stop-color="#36ffcf"/><stop offset="1" stop-color="#4c67fe" stop-opacity="0"/></radialGradient><clipPath id="c"><path d="M-1364.777-5049.194a10.428,10.428,0,0,1-2.766-.376l-14.128-3.881a10.362,10.362,0,0,0-2.749-.37,10.367,10.367,0,0,0-2.75.37l-14.127,3.881a10.425,10.425,0,0,1-2.767.376,10.329,10.329,0,0,1-7.094-2.824,10.3,10.3,0,0,1-3.257-7.088l-.665-14.563a10.381,10.381,0,0,0-1.708-5.247l-8.029-12.155a10.326,10.326,0,0,1-1.211-8.927,10.323,10.323,0,0,1,6.226-6.512l13.68-5.133a10.381,10.381,0,0,0,4.458-3.231l9.142-11.423a10.327,10.327,0,0,1,8.1-3.9,10.327,10.327,0,0,1,8.1,3.9l9.142,11.423a10.388,10.388,0,0,0,4.458,3.231l13.68,5.133a10.325,10.325,0,0,1,6.226,6.512,10.33,10.33,0,0,1-1.212,8.927l-8.029,12.155a10.376,10.376,0,0,0-1.708,5.247l-.665,14.563a10.306,10.306,0,0,1-3.258,7.088A10.337,10.337,0,0,1-1364.777-5049.194Zm-19.644-22.105a3.456,3.456,0,0,1,.873.111l10.15,2.647a3.427,3.427,0,0,0,.879.114,3.453,3.453,0,0,0,3.45-3.295l.463-9.618a3.458,3.458,0,0,1,.616-1.811l5.492-7.894a3.431,3.431,0,0,0,.455-3.031,3.429,3.429,0,0,0-2.133-2.2l-9.56-3.408a3.462,3.462,0,0,1-1.483-1.029l-6.556-7.777a3.453,3.453,0,0,0-2.645-1.229,3.452,3.452,0,0,0-2.645,1.229l-6.555,7.777a3.477,3.477,0,0,1-1.485,1.029l-9.558,3.408a3.427,3.427,0,0,0-2.134,2.2,3.431,3.431,0,0,0,.454,3.032l5.493,7.894a3.468,3.468,0,0,1,.615,1.811l.463,9.618a3.453,3.453,0,0,0,3.45,3.295,3.456,3.456,0,0,0,.879-.114l10.15-2.647A3.462,3.462,0,0,1-1384.421-5071.3Z" transform="translate(1426.543 5130.194)" fill="url(#a)"/></clipPath></defs><g transform="translate(0)"><path d="M-1364.777-5049.194a10.428,10.428,0,0,1-2.766-.376l-14.128-3.881a10.362,10.362,0,0,0-2.749-.37,10.367,10.367,0,0,0-2.75.37l-14.127,3.881a10.425,10.425,0,0,1-2.767.376,10.329,10.329,0,0,1-7.094-2.824,10.3,10.3,0,0,1-3.257-7.088l-.665-14.563a10.381,10.381,0,0,0-1.708-5.247l-8.029-12.155a10.326,10.326,0,0,1-1.211-8.927,10.323,10.323,0,0,1,6.226-6.512l13.68-5.133a10.381,10.381,0,0,0,4.458-3.231l9.142-11.423a10.327,10.327,0,0,1,8.1-3.9,10.327,10.327,0,0,1,8.1,3.9l9.142,11.423a10.388,10.388,0,0,0,4.458,3.231l13.68,5.133a10.325,10.325,0,0,1,6.226,6.512,10.33,10.33,0,0,1-1.212,8.927l-8.029,12.155a10.376,10.376,0,0,0-1.708,5.247l-.665,14.563a10.306,10.306,0,0,1-3.258,7.088A10.337,10.337,0,0,1-1364.777-5049.194Zm-19.644-22.105a3.456,3.456,0,0,1,.873.111l10.15,2.647a3.427,3.427,0,0,0,.879.114,3.453,3.453,0,0,0,3.45-3.295l.463-9.618a3.458,3.458,0,0,1,.616-1.811l5.492-7.894a3.431,3.431,0,0,0,.455-3.031,3.429,3.429,0,0,0-2.133-2.2l-9.56-3.408a3.462,3.462,0,0,1-1.483-1.029l-6.556-7.777a3.453,3.453,0,0,0-2.645-1.229,3.452,3.452,0,0,0-2.645,1.229l-6.555,7.777a3.477,3.477,0,0,1-1.485,1.029l-9.558,3.408a3.427,3.427,0,0,0-2.134,2.2,3.431,3.431,0,0,0,.454,3.032l5.493,7.894a3.468,3.468,0,0,1,.615,1.811l.463,9.618a3.453,3.453,0,0,0,3.45,3.295,3.456,3.456,0,0,0,.879-.114l10.15-2.647A3.462,3.462,0,0,1-1384.421-5071.3Z" transform="translate(1426.544 5130.194)" fill="url(#b)"/><g clip-path="url(#c)"><path d="M10.38,0A10.38,10.38,0,1,1,0,10.38,10.38,10.38,0,0,1,10.38,0Z" transform="translate(32.03 -0.01)" fill="#36ffcf"/></g></g></svg>