<svg xmlns="http://www.w3.org/2000/svg" xmlns:xlink="http://www.w3.org/1999/xlink" width="96" height="83" viewBox="0 0 96 83"><defs><filter id="a" x="0" y="0" width="96" height="83" filterUnits="userSpaceOnUse"><feOffset input="SourceAlpha"/><feGaussianBlur stdDeviation="3" result="b"/><feFlood flood-opacity="0.161"/><feComposite operator="in" in2="b"/><feComposite in="SourceGraphic"/></filter></defs><g transform="translate(-17 -144)"><g transform="matrix(1, 0, 0, 1, 17, 144)" filter="url(#a)"><path d="M-3884.5-4774a6.5,6.5,0,0,1-6.5-6.5,6.5,6.5,0,0,1,6.5-6.5h65a6.5,6.5,0,0,1,6.5,6.5,6.5,6.5,0,0,1-6.5,6.5Zm6.5-39v-26h39a13,13,0,0,1,13,13v13Z" transform="translate(3900 4848)" fill="#2a2931"/></g><rect width="52" height="26" transform="translate(39 179)" fill="#2a2931" opacity="0.5"/></g></svg>