<svg xmlns="http://www.w3.org/2000/svg" xmlns:xlink="http://www.w3.org/1999/xlink" width="96" height="83" viewBox="0 0 96 83"><defs><linearGradient id="a" x1="1" x2="0" y2="1.037" gradientUnits="objectBoundingBox"><stop offset="0" stop-color="#f8ff21"/><stop offset="1" stop-color="#e83679"/></linearGradient><filter id="b" x="0" y="0" width="96" height="83" filterUnits="userSpaceOnUse"><feOffset input="SourceAlpha"/><feGaussianBlur stdDeviation="3" result="c"/><feFlood flood-opacity="0.161"/><feComposite operator="in" in2="c"/><feComposite in="SourceGraphic"/></filter><linearGradient id="d" x1="1.252" y1="-1.1" x2="-0.24" y2="1.484" xlink:href="#a"/></defs><g transform="translate(-17 -144)"><g transform="matrix(1, 0, 0, 1, 17, 144)" filter="url(#b)"><path d="M-3884.5-4774a6.5,6.5,0,0,1-6.5-6.5,6.5,6.5,0,0,1,6.5-6.5h65a6.5,6.5,0,0,1,6.5,6.5,6.5,6.5,0,0,1-6.5,6.5Zm6.5-39v-26h39a13,13,0,0,1,13,13v13Z" transform="translate(3900 4848)" fill="url(#a)"/></g><rect width="52" height="26" transform="translate(39 179)" opacity="0.5" fill="url(#d)"/></g></svg>