<svg xmlns="http://www.w3.org/2000/svg" xmlns:xlink="http://www.w3.org/1999/xlink" width="96" height="99.387" viewBox="0 0 96 99.387"><defs><filter id="a" x="0" y="0" width="96" height="99.387" filterUnits="userSpaceOnUse"><feOffset input="SourceAlpha"/><feGaussianBlur stdDeviation="3" result="b"/><feFlood flood-opacity="0.161"/><feComposite operator="in" in2="b"/><feComposite in="SourceGraphic"/></filter></defs><g transform="translate(-105 -470.074)"><path d="M0-1209.039a14,14,0,0,1,14-14h0l13-7v-14l-.322-.174L51.041-1258a14.012,14.012,0,0,1,1.96,7.138v27.647a14.021,14.021,0,0,1-7.122,12.193l-23.862,13.461A13.935,13.935,0,0,1,14-1195.04,14,14,0,0,1,0-1209.039Z" transform="translate(139 1758.04)" fill="#2a2931" opacity="0.5"/><g transform="matrix(1, 0, 0, 1, 105, 470.07)" filter="url(#a)"><path d="M30.954-1176.613,7.122-1190.057A14.019,14.019,0,0,1,0-1202.251V-1229.9a14.021,14.021,0,0,1,7.122-12.194l25-14.1A14.025,14.025,0,0,1,39-1258a14.032,14.032,0,0,1,6.879,1.806l25,14.1a14.072,14.072,0,0,1,6.026,6.766h0l-.005,0a13.909,13.909,0,0,1,1.1,5.448,13.908,13.908,0,0,1-4.1,9.9,13.909,13.909,0,0,1-9.9,4.1,14,14,0,0,1-7-1.872,14.089,14.089,0,0,1-5.01-4.926L39-1216.075v14a14.016,14.016,0,0,0-14,14,14.027,14.027,0,0,0,5.955,11.459Z" transform="translate(9 1267)" fill="#2a2931"/></g></g></svg>