<svg xmlns="http://www.w3.org/2000/svg" xmlns:xlink="http://www.w3.org/1999/xlink" width="87.001" height="96" viewBox="0 0 87.001 96"><defs><linearGradient id="a" x1="0.906" y1="-0.017" x2="-0.208" y2="1" gradientUnits="objectBoundingBox"><stop offset="0" stop-color="#4c67fe"/><stop offset="1" stop-color="#8d35ff"/></linearGradient><filter id="c" x="0" y="0" width="57" height="96" filterUnits="userSpaceOnUse"><feOffset input="SourceAlpha"/><feGaussianBlur stdDeviation="3" result="d"/><feFlood flood-opacity="0.161"/><feComposite operator="in" in2="d"/><feComposite in="SourceGraphic"/></filter></defs><g transform="translate(-105 -212)"><path d="M26-1182H0v-26H26a13.016,13.016,0,0,0,13-13,13.015,13.015,0,0,0-13-13v-26a38.771,38.771,0,0,1,15.181,3.064,38.893,38.893,0,0,1,12.4,8.358,38.887,38.887,0,0,1,8.358,12.4A38.77,38.77,0,0,1,65-1221a38.778,38.778,0,0,1-3.064,15.181,38.887,38.887,0,0,1-8.358,12.4,38.9,38.9,0,0,1-12.4,8.358A38.776,38.776,0,0,1,26-1182Z" transform="translate(127 1481)" opacity="0.5" fill="url(#a)"/><g transform="matrix(1, 0, 0, 1, 105, 212)" filter="url(#c)"><path d="M0-1182v-13a13,13,0,0,1,13-13v-26a26,26,0,0,1,26-26v26a26,26,0,0,1-26,26h1a12,12,0,0,1,12,12v1a13,13,0,0,1-13,13Z" transform="translate(9 1269)" fill="url(#a)"/></g></g></svg>