<svg xmlns="http://www.w3.org/2000/svg" xmlns:xlink="http://www.w3.org/1999/xlink" width="120" height="78" viewBox="0 0 120 78"><defs><filter id="a" x="0" y="17" width="120" height="44.001" filterUnits="userSpaceOnUse"><feOffset input="SourceAlpha"/><feGaussianBlur stdDeviation="3" result="b"/><feFlood flood-opacity="0.161"/><feComposite operator="in" in2="b"/><feComposite in="SourceGraphic"/></filter></defs><g transform="translate(-157 -136)"><path d="M-3851-4761v-13a13,13,0,0,1,13-13h17a26,26,0,0,1-26,26Zm-14,0a26,26,0,0,1-26-26h17a13,13,0,0,1,13,13v13Zm27-52a13,13,0,0,1-13-13v-13h4a26,26,0,0,1,26,26Zm-53,0a26,26,0,0,1,26-26h4v13a13,13,0,0,1-13,13Z" transform="translate(4073 4975)" fill="#2a2931" opacity="0.5"/><g transform="matrix(1, 0, 0, 1, 157, 136)" filter="url(#a)"><path d="M-3822-4813v-26h20a13,13,0,0,1,13,13,13,13,0,0,1-13,13Zm-56,0a13,13,0,0,1-13-13,13,13,0,0,1,13-13h20v26Z" transform="translate(3900 4865)" fill="#2a2931"/></g></g></svg>