<svg xmlns="http://www.w3.org/2000/svg" xmlns:xlink="http://www.w3.org/1999/xlink" width="96" height="86.986" viewBox="0 0 96 86.986"><defs><linearGradient id="a" x1="0.969" y1="0.017" x2="0.012" y2="0.975" gradientUnits="objectBoundingBox"><stop offset="0" stop-color="#ff3629"/><stop offset="1" stop-color="#fe2368"/></linearGradient><filter id="c" x="0" y="0" width="96" height="70.689" filterUnits="userSpaceOnUse"><feOffset input="SourceAlpha"/><feGaussianBlur stdDeviation="3" result="d"/><feFlood flood-opacity="0.161"/><feComposite operator="in" in2="d"/><feComposite in="SourceGraphic"/></filter></defs><g transform="translate(-209 -332.122)"><path d="M23.82-1182.956a38.872,38.872,0,0,1-12.4-8.359,38.86,38.86,0,0,1-8.358-12.4A38.75,38.75,0,0,1,0-1218.892a38.749,38.749,0,0,1,3.065-15.18,38.869,38.869,0,0,1,8.358-12.4,38.883,38.883,0,0,1,12.4-8.358q.735-.311,1.478-.59v-1.421A3.162,3.162,0,0,1,28.46-1260H49.541a3.162,3.162,0,0,1,3.163,3.162v1.421q.743.279,1.477.59a38.884,38.884,0,0,1,12.4,8.358,38.869,38.869,0,0,1,8.358,12.4A38.749,38.749,0,0,1,78-1218.892a38.75,38.75,0,0,1-3.065,15.18,38.86,38.86,0,0,1-8.358,12.4,38.872,38.872,0,0,1-12.4,8.359A38.766,38.766,0,0,1,39-1179.891,38.766,38.766,0,0,1,23.82-1182.956Zm2.532-35.936A12.663,12.663,0,0,0,39-1206.243a12.663,12.663,0,0,0,12.648-12.648A12.663,12.663,0,0,0,39-1231.54,12.663,12.663,0,0,0,26.352-1218.892Z" transform="translate(218 1599)" opacity="0.5" fill="url(#a)"/><g transform="matrix(1, 0, 0, 1, 209, 332.12)" filter="url(#c)"><path d="M64.825-1205.3a12.84,12.84,0,0,1-9.317-4.014,13.894,13.894,0,0,1-3.859-9.69h-25.3a13.9,13.9,0,0,1-3.859,9.69,12.84,12.84,0,0,1-9.317,4.014,12.84,12.84,0,0,1-9.317-4.014A13.9,13.9,0,0,1,0-1219v-12.648a26.215,26.215,0,0,1,7.431-18.342,26.206,26.206,0,0,1,18.041-8,3.154,3.154,0,0,0-.175,1.04v2.109a8.442,8.442,0,0,0,8.433,8.432H44.271a8.442,8.442,0,0,0,8.433-8.432v-2.109a3.155,3.155,0,0,0-.175-1.04,26.2,26.2,0,0,1,18.041,8A26.216,26.216,0,0,1,78-1231.649V-1219a13.9,13.9,0,0,1-3.859,9.69A12.84,12.84,0,0,1,64.825-1205.3Z" transform="translate(9 1266.99)" fill="url(#a)"/></g></g></svg>