<svg xmlns="http://www.w3.org/2000/svg" xmlns:xlink="http://www.w3.org/1999/xlink" width="52.001" height="78" viewBox="0 0 52.001 78"><defs><linearGradient id="a" x1="1.4" y1="-0.703" x2="-0.464" y2="1.319" gradientUnits="objectBoundingBox"><stop offset="0" stop-color="#716f7e"/><stop offset="1" stop-color="#23202a"/></linearGradient></defs><g transform="translate(-152 -588.999)"><rect width="26" height="39" transform="translate(165 615)" opacity="0.5" fill="url(#a)"/><path d="M-1423-1193a13,13,0,0,1,13-13,13,13,0,0,1,13,13,13,13,0,0,1-13,13A13,13,0,0,1-1423-1193Zm13-13h0v-26h-26l0-26h26a25.839,25.839,0,0,1,10.12,2.043,25.923,25.923,0,0,1,8.265,5.573,25.9,25.9,0,0,1,5.572,8.264A25.829,25.829,0,0,1-1384-1232a25.826,25.826,0,0,1-2.043,10.12,25.913,25.913,0,0,1-5.572,8.265,25.9,25.9,0,0,1-8.265,5.572A25.832,25.832,0,0,1-1410-1206Z" transform="translate(1588 1847)" fill="url(#a)"/></g></svg>